<svg xmlns="http://www.w3.org/2000/svg" width="1200" height="800" viewBox="0 0 1200 800">
<defs><linearGradient id="g"><stop stop-color="#0a3280"/><stop offset=".52" stop-color="#6677ff"/><stop offset="1" stop-color="#ffae66"/></linearGradient></defs>
<rect width="1200" height="800" fill="#f4f6fa"/><rect x="40" y="40" width="1120" height="220" rx="12" fill="url(#g)"/>
<g fill="#12284b" font-family="sans-serif"><text x="65" y="330" font-size="46" font-weight="bold">IMAGE FORMAT TEST</text><text x="65" y="380" font-size="22">Same pixels. Different encoding.</text><text x="65" y="730" font-size="18">Synthetic sample / 1200 x 800 / No personal data</text></g>
<rect x="60" y="430" width="3" height="170" fill="#ed4634"/><rect x="67" y="430" width="2" height="170" fill="#1061e0"/><rect x="74" y="430" width="3" height="170" fill="#ed4634"/><rect x="81" y="430" width="2" height="170" fill="#1061e0"/><rect x="88" y="430" width="3" height="170" fill="#ed4634"/><rect x="95" y="430" width="2" height="170" fill="#1061e0"/><rect x="102" y="430" width="3" height="170" fill="#ed4634"/><rect x="109" y="430" width="2" height="170" fill="#1061e0"/><rect x="116" y="430" width="3" height="170" fill="#ed4634"/><rect x="123" y="430" width="2" height="170" fill="#1061e0"/><rect x="130" y="430" width="3" height="170" fill="#ed4634"/><rect x="137" y="430" width="2" height="170" fill="#1061e0"/><rect x="144" y="430" width="3" height="170" fill="#ed4634"/><rect x="151" y="430" width="2" height="170" fill="#1061e0"/><rect x="158" y="430" width="3" height="170" fill="#ed4634"/><rect x="165" y="430" width="2" height="170" fill="#1061e0"/><rect x="172" y="430" width="3" height="170" fill="#ed4634"/><rect x="179" y="430" width="2" height="170" fill="#1061e0"/><rect x="186" y="430" width="3" height="170" fill="#ed4634"/><rect x="193" y="430" width="2" height="170" fill="#1061e0"/><rect x="200" y="430" width="3" height="170" fill="#ed4634"/><rect x="207" y="430" width="2" height="170" fill="#1061e0"/><rect x="214" y="430" width="3" height="170" fill="#ed4634"/><rect x="221" y="430" width="2" height="170" fill="#1061e0"/><rect x="228" y="430" width="3" height="170" fill="#ed4634"/><rect x="235" y="430" width="2" height="170" fill="#1061e0"/><rect x="242" y="430" width="3" height="170" fill="#ed4634"/><rect x="249" y="430" width="2" height="170" fill="#1061e0"/><rect x="256" y="430" width="3" height="170" fill="#ed4634"/><rect x="263" y="430" width="2" height="170" fill="#1061e0"/><rect x="270" y="430" width="3" height="170" fill="#ed4634"/><rect x="277" y="430" width="2" height="170" fill="#1061e0"/><rect x="284" y="430" width="3" height="170" fill="#ed4634"/><rect x="291" y="430" width="2" height="170" fill="#1061e0"/><rect x="298" y="430" width="3" height="170" fill="#ed4634"/><rect x="305" y="430" width="2" height="170" fill="#1061e0"/><rect x="312" y="430" width="3" height="170" fill="#ed4634"/><rect x="319" y="430" width="2" height="170" fill="#1061e0"/><rect x="326" y="430" width="3" height="170" fill="#ed4634"/><rect x="333" y="430" width="2" height="170" fill="#1061e0"/><rect x="340" y="430" width="3" height="170" fill="#ed4634"/><rect x="347" y="430" width="2" height="170" fill="#1061e0"/><rect x="354" y="430" width="3" height="170" fill="#ed4634"/><rect x="361" y="430" width="2" height="170" fill="#1061e0"/><rect x="368" y="430" width="3" height="170" fill="#ed4634"/><rect x="375" y="430" width="2" height="170" fill="#1061e0"/><rect x="382" y="430" width="3" height="170" fill="#ed4634"/><rect x="389" y="430" width="2" height="170" fill="#1061e0"/><rect x="396" y="430" width="3" height="170" fill="#ed4634"/><rect x="403" y="430" width="2" height="170" fill="#1061e0"/><rect x="410" y="430" width="3" height="170" fill="#ed4634"/><rect x="417" y="430" width="2" height="170" fill="#1061e0"/><rect x="424" y="430" width="3" height="170" fill="#ed4634"/><rect x="431" y="430" width="2" height="170" fill="#1061e0"/><rect x="438" y="430" width="3" height="170" fill="#ed4634"/><rect x="445" y="430" width="2" height="170" fill="#1061e0"/><rect x="452" y="430" width="3" height="170" fill="#ed4634"/><rect x="459" y="430" width="2" height="170" fill="#1061e0"/><rect x="466" y="430" width="3" height="170" fill="#ed4634"/><rect x="473" y="430" width="2" height="170" fill="#1061e0"/>
<rect x="540" y="440" width="60" height="160" fill="#102d64"/><rect x="615" y="440" width="60" height="160" fill="#1745a6"/><rect x="690" y="440" width="60" height="160" fill="#3562db"/><rect x="765" y="440" width="60" height="160" fill="#729aff"/><rect x="840" y="440" width="60" height="160" fill="#85dac7"/><rect x="915" y="440" width="60" height="160" fill="#ffd86d"/><rect x="990" y="440" width="60" height="160" fill="#fd9c68"/><rect x="1065" y="440" width="60" height="160" fill="#ec6354"/>
<path d="M55 645H1145" stroke="#142e56" stroke-width="1"/></svg>